<?xml version="1.0" encoding="UTF-8"?><svg id="Livello_1" xmlns="http://www.w3.org/2000/svg" viewBox="0 0 875.71 253.85"><defs><style>.cls-1{fill:#fff;}</style></defs><path class="cls-1" d="M13.33,42.04h5.04V10.46h-5.04v-3.96h15.19c8.29,0,14.59,4.81,14.59,12.43,0,8.1-5.89,12.85-14.65,12.85-2.16,0-4.44-.06-5.58-.12v10.39h5.34v3.96h-14.89v-3.96Z"/><path class="cls-1" d="M43.48,42.04h3.78l11.83-31.64h-4.5v-3.9h18.01v3.9h-4.51l11.83,31.64h3.78v3.96h-13.21v-3.9h4.63l-3.54-9.72h-16.15l-3.54,9.72h4.81v3.9h-13.21v-3.96ZM70.26,28.59l-6.73-18.43-6.79,18.43h13.51Z"/><path class="cls-1" d="M96.98,14.3v27.74h5.16v3.96h-14.53v-3.96h5.04V10.46h-5.04v-3.96h8.95l22.82,30.08V10.46h-5.22v-3.96h14.35v3.96h-4.86v35.67l-2.46.06-24.2-31.89Z"/><path class="cls-1" d="M142.02,42.04h5.34V10.28h-9.91v6.36h-4.26V6.49h32.84v10.15h-4.26v-6.36h-9.91v31.76h5.34v3.96h-15.19v-3.96Z"/><path class="cls-1" d="M171.38,42.04h5.04V10.46h-5.04v-3.96h28.7v9.67h-4.26v-5.76h-14.89v13.57h12.91v3.84h-12.91v14.29h14.89v-5.76h4.32v9.67h-28.76v-3.96Z"/><path class="cls-1" d="M206.69,42.04h5.04V10.46h-5.04v-3.96h15.01v3.96h-5.46v31.64h13.69v-6.06h4.26v9.97h-27.5v-3.96Z"/><path class="cls-1" d="M239.96,42.04h5.04V10.46h-5.04v-3.96h15.01v3.96h-5.46v31.64h13.69v-6.06h4.26v9.97h-27.5v-3.96Z"/><path class="cls-1" d="M273.23,42.04h5.04V10.46h-5.04v-3.96h28.7v9.67h-4.26v-5.76h-14.89v13.57h12.91v3.84h-12.91v14.29h14.89v-5.76h4.32v9.67h-28.76v-3.96Z"/><path class="cls-1" d="M308.54,42.04h5.04V10.46h-5.04v-3.96h15.01c8.71,0,14.35,4.38,14.35,11.47,0,5.41-3.48,9.19-8.47,10.81l8.29,13.27h4.74v3.96h-7.81l-9.73-16.15c-.72.06-1.5.12-2.28.12-1.56,0-3.42-.06-4.56-.12v12.19h5.16v3.96h-14.71v-3.96ZM333.4,18.08c0-4.98-3.96-7.63-10.09-7.63h-5.22v15.49c1.2.06,2.88.12,4.8.12,6.01,0,10.51-2.76,10.51-7.99Z"/><path class="cls-1" d="M345.71,42.04h5.34V10.46h-5.34v-3.96h15.13v3.96h-5.34v31.58h5.34v3.96h-15.13v-3.96Z"/><path class="cls-1" d="M364.81,42.04h3.78l11.83-31.64h-4.5v-3.9h18.01v3.9h-4.51l11.83,31.64h3.78v3.96h-13.21v-3.9h4.63l-3.54-9.72h-16.15l-3.54,9.72h4.81v3.9h-13.21v-3.96ZM391.59,28.59l-6.73-18.43-6.79,18.43h13.51Z"/><path class="cls-1" d="M13.39,109.16h5.34v-31.58h-5.34v-3.96h15.13v3.96h-5.34v31.58h5.34v3.96h-15.13v-3.96Z"/><path class="cls-1" d="M32.72,94.39h42.63v4.08h-42.63v-4.08Z"/><path class="cls-1" d="M79.08,105.62c0-2.28,1.38-3.78,3.18-3.78s3.12,1.38,3.12,2.94c0,1.08-.42,1.92-.96,2.64,1.32,1.32,4.26,2.46,7.87,2.46,5.28,0,8.47-2.7,8.47-6.96s-3.72-5.89-8.23-7.63c-6.79-2.58-11.95-5.1-11.95-11.89,0-6.06,4.81-10.51,12.19-10.51,6.49,0,11.77,3.72,11.77,7.8,0,2.22-1.44,3.48-3.12,3.48-1.92,0-3.18-1.44-3.18-3.06,0-.96.42-1.74.84-2.28-1.08-1.2-3.96-1.98-6.42-1.98-4.74,0-7.63,2.58-7.63,6.19,0,4.21,3.72,5.94,8.71,7.87,6.49,2.52,11.47,4.98,11.47,11.65s-5.53,11.23-12.97,11.23-13.15-4.32-13.15-8.17Z"/><path class="cls-1" d="M158.23,109.16h5.04v-31.58h-5.04v-3.96h15.01v3.96h-5.46v31.64h13.69v-6.06h4.26v9.97h-27.5v-3.96Z"/><path class="cls-1" d="M189.76,109.16h3.78l11.83-31.64h-4.51v-3.9h18.01v3.9h-4.5l11.83,31.64h3.78v3.96h-13.21v-3.9h4.62l-3.54-9.72h-16.15l-3.54,9.72h4.8v3.9h-13.21v-3.96ZM216.54,95.71l-6.72-18.43-6.79,18.43h13.51Z"/><path class="cls-1" d="M256.89,81.42v27.74h5.16v3.96h-14.53v-3.96h5.04v-31.58h-5.04v-3.96h8.95l22.82,30.08v-26.12h-5.22v-3.96h14.35v3.96h-4.86v35.67l-2.46.06-24.2-31.89Z"/><path class="cls-1" d="M293.41,109.16h5.04v-31.58h-5.04v-3.96h28.7v9.67h-4.26v-5.76h-14.89v13.57h12.91v3.84h-12.91v14.29h14.89v-5.76h4.32v9.67h-28.76v-3.96Z"/><path class="cls-1" d="M328.72,109.16h5.04v-31.58h-5.04v-3.96h15.01v3.96h-5.46v31.64h13.69v-6.06h4.26v9.97h-27.5v-3.96Z"/><path class="cls-1" d="M375.31,109.16h5.16l1.44-31.58h-5.28v-3.96h9.61l12.91,26.84,12.97-26.84h9.55v3.96h-5.28l1.44,31.58h5.1v3.96h-14.53v-3.96h5.04l-1.02-27.62-12.73,26h-1.2l-12.73-26-.96,27.62h4.98v3.96h-14.47v-3.96Z"/><path class="cls-1" d="M428.58,109.16h5.04v-31.58h-5.04v-3.96h28.7v9.67h-4.26v-5.76h-14.89v13.57h12.91v3.84h-12.91v14.29h14.89v-5.76h4.32v9.67h-28.76v-3.96Z"/><path class="cls-1" d="M463.89,109.16h5.04v-31.58h-5.04v-3.96h14.83c13.75,0,22.7,7.63,22.7,19.34s-8.35,20.18-22.88,20.18h-14.65v-3.96ZM479.08,109.16c11.83,0,17.77-6.61,17.77-16.27s-7.09-15.31-18.26-15.31h-5.16v31.58h5.65Z"/><path class="cls-1" d="M507.67,109.16h5.34v-31.58h-5.34v-3.96h15.13v3.96h-5.35v31.58h5.35v3.96h-15.13v-3.96Z"/><path class="cls-1" d="M537.03,109.16h5.34v-31.76h-9.91v6.36h-4.26v-10.15h32.84v10.15h-4.26v-6.36h-9.91v31.76h5.34v3.96h-15.19v-3.96Z"/><path class="cls-1" d="M566.4,109.16h5.04v-31.58h-5.04v-3.96h28.7v9.67h-4.26v-5.76h-14.89v13.57h12.91v3.84h-12.91v14.29h14.89v-5.76h4.32v9.67h-28.76v-3.96Z"/><path class="cls-1" d="M601.71,109.16h5.04v-31.58h-5.04v-3.96h15.01c8.71,0,14.35,4.38,14.35,11.47,0,5.41-3.48,9.19-8.47,10.81l8.29,13.27h4.74v3.96h-7.81l-9.73-16.15c-.72.06-1.5.12-2.28.12-1.56,0-3.42-.06-4.56-.12v12.19h5.16v3.96h-14.71v-3.96ZM626.57,85.2c0-4.98-3.96-7.63-10.09-7.63h-5.22v15.49c1.2.06,2.88.12,4.8.12,6.01,0,10.51-2.76,10.51-7.99Z"/><path class="cls-1" d="M638.82,109.16h5.04v-31.58h-5.04v-3.96h15.01c8.71,0,14.35,4.38,14.35,11.47,0,5.41-3.48,9.19-8.47,10.81l8.29,13.27h4.74v3.96h-7.81l-9.73-16.15c-.72.06-1.5.12-2.28.12-1.56,0-3.42-.06-4.56-.12v12.19h5.16v3.96h-14.71v-3.96ZM663.68,85.2c0-4.98-3.96-7.63-10.09-7.63h-5.22v15.49c1.2.06,2.88.12,4.8.12,6.01,0,10.51-2.76,10.51-7.99Z"/><path class="cls-1" d="M674.19,109.16h3.78l11.83-31.64h-4.5v-3.9h18.01v3.9h-4.51l11.83,31.64h3.78v3.96h-13.21v-3.9h4.63l-3.54-9.72h-16.15l-3.54,9.72h4.81v3.9h-13.21v-3.96ZM700.97,95.71l-6.73-18.43-6.79,18.43h13.51Z"/><path class="cls-1" d="M727.69,81.42v27.74h5.16v3.96h-14.53v-3.96h5.04v-31.58h-5.04v-3.96h8.95l22.82,30.08v-26.12h-5.22v-3.96h14.35v3.96h-4.86v35.67l-2.46.06-24.2-31.89Z"/><path class="cls-1" d="M764.21,109.16h5.04v-31.58h-5.04v-3.96h28.7v9.67h-4.26v-5.76h-14.89v13.57h12.91v3.84h-12.91v14.29h14.89v-5.76h4.32v9.67h-28.76v-3.96Z"/><path class="cls-1" d="M845.28,93.91c0-2.04,1.62-3.72,3.66-3.72s3.66,1.68,3.66,3.72-1.62,3.72-3.66,3.72-3.66-1.68-3.66-3.72ZM845.28,109.88c0-2.04,1.62-3.72,3.66-3.72s3.66,1.68,3.66,3.72-1.62,3.72-3.66,3.72-3.66-1.68-3.66-3.72Z"/><path class="cls-1" d="M151.71,89.92c-1.5-9.75-9.34-17.02-19.48-17.02s-18.17,7.19-19.7,17.02h39.18Z"/><path class="cls-1" d="M112.51,96.76c1.47,9.78,9.32,17.08,19.48,17.08s18.2-7.22,19.71-17.08h-39.2Z"/><path class="cls-1" d="M838.45,89.92c-1.5-9.75-9.34-17.02-19.48-17.02s-18.17,7.19-19.7,17.02h39.18Z"/><path class="cls-1" d="M799.25,96.76c1.47,9.78,9.32,17.08,19.48,17.08s18.2-7.22,19.71-17.08h-39.2Z"/><path class="cls-1" d="M11.53,178.14h4.32l13.21-35.31h-4.98v-2.1h15.01v2.1h-4.98l13.21,35.31h4.38v2.1h-12.19v-2.1h5.16l-4.62-12.55h-16.99l-4.62,12.55h5.28v2.1h-12.19v-2.1ZM39.27,163.48l-7.69-20.84-7.75,20.84h15.43Z"/><path class="cls-1" d="M60.17,178.14h5.89v-35.31h-12.43v6.96h-2.4v-9.07h32.06v9.07h-2.4v-6.96h-12.37v35.31h5.82v2.1h-14.17v-2.1Z"/><path class="cls-1" d="M88.93,178.14h5.46v-35.31h-5.46v-2.1h13.63v2.1h-5.7v35.31h16.03v-6.97h2.34v9.07h-26.3v-2.1Z"/><path class="cls-1" d="M119.38,178.14h4.32l13.21-35.31h-4.98v-2.1h15.01v2.1h-4.98l13.21,35.31h4.38v2.1h-12.19v-2.1h5.16l-4.62-12.55h-16.99l-4.62,12.55h5.28v2.1h-12.19v-2.1ZM147.12,163.48l-7.69-20.84-7.75,20.84h15.43Z"/><path class="cls-1" d="M171.2,144.99v33.15h5.64v2.1h-13.45v-2.1h5.46v-35.31h-5.46v-2.1h7.57l25.34,34.65v-32.54h-5.58v-2.1h13.33v2.1h-5.46v37.59h-1.44l-25.94-35.43Z"/><path class="cls-1" d="M217.74,178.14h5.89v-35.31h-12.43v6.96h-2.4v-9.07h32.06v9.07h-2.4v-6.96h-12.37v35.31h5.83v2.1h-14.17v-2.1Z"/><path class="cls-1" d="M246.51,178.14h5.46v-35.31h-5.46v-2.1h27.8v8.77h-2.4v-6.66h-17.48v16.15h13.99v2.16h-13.99v16.99h17.48v-6.67h2.4v8.77h-27.8v-2.1Z"/><path class="cls-1" d="M294.73,178.14h5.46v-35.31h-5.46v-2.1h14.65c13.81,0,22.1,7.93,22.1,19.51s-8.05,20-21.98,20h-14.77v-2.1ZM309.74,178.14c12.73,0,19.27-7.39,19.27-17.96s-7.14-17.35-19.69-17.35h-6.66v35.31h7.09Z"/><path class="cls-1" d="M338.02,178.14h5.76v-35.31h-5.76v-2.1h14.05v2.1h-5.82v35.31h5.82v2.1h-14.05v-2.1Z"/><path class="cls-1" d="M358.5,160.96c0-12.61,9.49-20.89,20.11-20.89,8.71,0,14.59,5.04,14.59,8.94,0,1.56-.96,2.58-2.28,2.58-1.2,0-2.1-.96-2.1-2.16,0-.9.42-1.68,1.32-2.1-1.44-2.46-5.82-5.1-11.59-5.1-10.63,0-17.53,8.52-17.53,18.73s7.51,17.66,16.81,17.66c4.81,0,9.31-1.56,13.57-4.81v-9.67h-12.13v-2.1h14.53v18.19h-2.34v-4.21c-4.08,3.06-8.34,4.68-13.75,4.68-10.09,0-19.21-7.44-19.21-19.76Z"/><path class="cls-1" d="M401.92,178.14h5.76v-35.31h-5.76v-2.1h14.05v2.1h-5.82v35.31h5.82v2.1h-14.05v-2.1Z"/><path class="cls-1" d="M430.56,178.14h5.89v-35.31h-12.43v6.96h-2.4v-9.07h32.06v9.07h-2.4v-6.96h-12.37v35.31h5.82v2.1h-14.17v-2.1Z"/><path class="cls-1" d="M454.47,178.14h4.32l13.21-35.31h-4.98v-2.1h15.01v2.1h-4.98l13.21,35.31h4.38v2.1h-12.19v-2.1h5.16l-4.62-12.55h-16.99l-4.63,12.55h5.28v2.1h-12.19v-2.1ZM482.2,163.48l-7.69-20.84-7.74,20.84h15.43Z"/><path class="cls-1" d="M498.48,178.14h5.46v-35.31h-5.46v-2.1h13.63v2.1h-5.71v35.31h16.03v-6.97h2.34v9.07h-26.3v-2.1Z"/><path class="cls-1" d="M530.79,178.14h5.46v-35.31h-5.46v-2.1h27.8v8.77h-2.4v-6.66h-17.47v16.15h13.99v2.16h-13.99v16.99h17.47v-6.67h2.4v8.77h-27.8v-2.1Z"/><path class="cls-1" d="M13.39,245.25h5.46v-35.31h-5.46v-2.1h14.65c13.81,0,22.09,7.92,22.09,19.51s-8.04,19.99-21.97,19.99h-14.77v-2.1ZM28.4,245.25c12.73,0,19.28-7.39,19.28-17.96s-7.15-17.35-19.7-17.35h-6.66v35.31h7.09Z"/><path class="cls-1" d="M56.62,245.25h5.46v-35.31h-5.46v-2.1h27.8v8.77h-2.4v-6.66h-17.47v16.15h13.99v2.16h-13.99v16.99h17.47v-6.66h2.4v8.77h-27.8v-2.1Z"/><path class="cls-1" d="M91.45,245.25h5.46v-35.31h-5.46v-2.1h13.63v2.1h-5.71v35.31h16.03v-6.96h2.34v9.07h-26.3v-2.1Z"/><path class="cls-1" d="M145.98,245.25h5.89v-35.31h-12.43v6.96h-2.4v-9.07h32.06v9.07h-2.4v-6.96h-12.37v35.31h5.83v2.1h-14.17v-2.1Z"/><path class="cls-1" d="M174.75,245.25h5.46v-35.31h-5.46v-2.1h27.8v8.77h-2.4v-6.66h-17.48v16.15h13.99v2.16h-13.99v16.99h17.48v-6.66h2.4v8.77h-27.8v-2.1Z"/><path class="cls-1" d="M209.57,245.25h5.46v-35.31h-5.46v-2.1h14.77c8.29,0,13.51,4.62,13.51,11.05,0,5.76-3.84,9.55-9.55,10.87l9.85,15.49h4.8v2.1h-6.49l-10.75-17.17c-.66.06-1.5.12-2.28.12-2.16,0-4.32,0-5.94-.06v15.01h5.58v2.1h-13.51v-2.1ZM235.33,218.95c0-5.53-4.26-9.01-11.17-9.01h-6.66v18.13c1.8.06,3.96.12,6.06.12,6.91,0,11.77-3.18,11.77-9.25Z"/><path class="cls-1" d="M245.84,245.25h5.46v-35.31h-5.46v-2.1h14.77c8.29,0,13.51,4.62,13.51,11.05,0,5.76-3.84,9.55-9.55,10.87l9.85,15.49h4.8v2.1h-6.49l-10.75-17.17c-.66.06-1.5.12-2.28.12-2.16,0-4.32,0-5.94-.06v15.01h5.58v2.1h-13.51v-2.1ZM271.6,218.95c0-5.53-4.26-9.01-11.17-9.01h-6.66v18.13c1.8.06,3.96.12,6.06.12,6.91,0,11.77-3.18,11.77-9.25Z"/><path class="cls-1" d="M282.17,245.25h5.76v-35.31h-5.76v-2.1h14.05v2.1h-5.83v35.31h5.83v2.1h-14.05v-2.1Z"/><path class="cls-1" d="M310.82,245.25h5.89v-35.31h-12.43v6.96h-2.4v-9.07h32.06v9.07h-2.4v-6.96h-12.37v35.31h5.83v2.1h-14.17v-2.1Z"/><path class="cls-1" d="M384.92,245.25h5.46v-35.31h-5.46v-2.1h14.77c8.29,0,13.51,4.62,13.51,11.05,0,5.76-3.84,9.55-9.55,10.87l9.85,15.49h4.81v2.1h-6.49l-10.75-17.17c-.66.06-1.5.12-2.28.12-2.16,0-4.33,0-5.95-.06v15.01h5.58v2.1h-13.51v-2.1ZM410.68,218.95c0-5.53-4.26-9.01-11.17-9.01h-6.66v18.13c1.8.06,3.96.12,6.06.12,6.91,0,11.77-3.18,11.77-9.25Z"/><path class="cls-1" d="M421.25,245.25h5.76v-35.31h-5.76v-2.1h14.05v2.1h-5.82v35.31h5.82v2.1h-14.05v-2.1Z"/><path class="cls-1" d="M378.34,224.15c-1.5-9.75-9.34-17.02-19.48-17.02s-18.17,7.19-19.7,17.02h39.18Z"/><path class="cls-1" d="M339.14,230.99c1.47,9.78,9.32,17.08,19.48,17.08s18.2-7.22,19.71-17.08h-39.2Z"/><path class="cls-1" d="M481.02,224.15c-1.5-9.75-9.34-17.02-19.48-17.02s-18.17,7.19-19.7,17.02h39.18Z"/><path class="cls-1" d="M441.82,230.99c1.47,9.78,9.32,17.08,19.48,17.08s18.2-7.22,19.71-17.08h-39.2Z"/></svg>