<?xml version="1.0" encoding="UTF-8"?><svg id="Livello_1" xmlns="http://www.w3.org/2000/svg" viewBox="0 0 1057.82 1972.54"><defs><style>.cls-1,.cls-2{fill:none;stroke:#fff;stroke-miterlimit:10;}.cls-3,.cls-4,.cls-5,.cls-6,.cls-7{fill:#fff;}.cls-3,.cls-4,.cls-7{font-size:10px;}.cls-3,.cls-7{font-family:Merriweather-Italic, Merriweather;font-style:italic;}.cls-3,.cls-8{letter-spacing:.01em;}.cls-4,.cls-5{font-family:Merriweather-Regular, Merriweather;}.cls-5{font-size:12px;}.cls-2{stroke-width:.38px;}.cls-9{fill:#89abac;}.cls-10{letter-spacing:0em;}</style></defs><circle class="cls-9" cx="375.26" cy="1686.52" r="6.62"/><circle class="cls-9" cx="375.81" cy="258.12" r="12.19"/><circle class="cls-9" cx="375.26" cy="1493.06" r="13.25"/><circle class="cls-9" cx="375.26" cy="860.2" r="326.63"/><text class="cls-3" transform="translate(361.75 795.1) rotate(90)"><tspan x="0" y="0">medioevo (476–1492)</tspan></text><text class="cls-3" transform="translate(361.75 110.14) rotate(90)"><tspan x="0" y="0">preistoria (–3000 a.c.)</tspan></text><circle class="cls-9" cx="375.26" cy="350.56" r="63.21"/><line class="cls-1" x1="375.81" y1="520.52" x2="375.81" y2="685.27"/><line class="cls-1" x1="375.81" y1="245.93" x2="375.81" y2="383.23"/><text class="cls-5" transform="translate(477.09 113.76) rotate(.07)"><tspan x="0" y="0">popoli preistorici (tra cui il popolo dei Sesi), commercio di ossidiana con Malta</tspan></text><text class="cls-5" transform="translate(477.08 247.91) rotate(.06)"><tspan x="0" y="0">Fenici. isola di Irannim</tspan></text><text class="cls-5" transform="translate(477.08 304.73) rotate(.06)"><tspan x="0" y="0">prima occupazione da parte dei Romani</tspan></text><text class="cls-5" transform="translate(477.08 332.23) rotate(.06)"><tspan x="0" y="0">i Cartaginesi scacciano i Romani</tspan></text><text class="cls-5" transform="translate(477.08 385.19) rotate(.06)"><tspan x="0" y="0">i Romani occupano l’isola. Cossura (Cossyra). Annessione a Roma</tspan></text><text class="cls-5" transform="translate(477.08 525.08) rotate(.06)"><tspan x="0" y="0">i Vandali attraversano il canale di Sicilia</tspan></text><text class="cls-5" transform="translate(477.08 551.73) rotate(.06)"><tspan x="0" y="0">i Bizantini occupano l’isola. Kossyra</tspan></text><text class="cls-5" transform="translate(476.53 578.21) rotate(.06)"><tspan x="0" y="0">Cristiani provenienti da Capo Bon occupano l’isola. Gusiras</tspan></text><text class="cls-5" transform="translate(477.08 604.98) rotate(.06)"><tspan x="0" y="0">Abd-El Melik Ibn Katain massacra i Cristiani arabi</tspan></text><text class="cls-5" transform="translate(477.08 631.63) rotate(.06)"><tspan x="0" y="0">sultanato di Kairouan</tspan></text><text class="cls-5" transform="translate(477.08 658.29) rotate(.06)"><tspan x="0" y="0">colonizzazione da parte di contadini siciliani di origine berbera</tspan></text><text class="cls-3" transform="translate(361.75 341.94) rotate(90)"><tspan x="0" y="0">guerre puniche (264–164 a.c)</tspan></text><circle class="cls-9" cx="375.26" cy="1260.5" r="73.68"/><text class="cls-3" transform="translate(361.75 1208.34) rotate(90)"><tspan x="0" y="0">rinascimento (1492–1600)</tspan></text><text class="cls-4" transform="translate(293.49 112.74)"><tspan x="0" y="0">5000 A.C</tspan></text><text class="cls-4" transform="translate(295.09 250.03)"><tspan x="0" y="0">1000 A.C</tspan></text><text class="cls-4" transform="translate(300.3 304.95)"><tspan x="0" y="0">254 A.C</tspan></text><text class="cls-4" transform="translate(300.48 332.4)"><tspan x="0" y="0">253 A.C </tspan></text><text class="cls-4" transform="translate(302.08 387.36)"><tspan x="0" y="0">217 A.C</tspan></text><text class="cls-4" transform="translate(318.77 522.61)"><tspan x="0" y="0">429 </tspan></text><text class="cls-4" transform="translate(318.35 550.21)"><tspan x="0" y="0">567 </tspan></text><text class="cls-4" transform="translate(318.02 577.53)"><tspan x="0" y="0">650 </tspan></text><text class="cls-4" transform="translate(317.91 604.53)"><tspan x="0" y="0">680 </tspan></text><text class="cls-4" transform="translate(318.84 631.17)"><tspan x="0" y="0">835 </tspan></text><text class="cls-4" transform="translate(317.91 657.81)"><tspan x="0" y="0">860 </tspan></text><line class="cls-1" x1="375.81" y1="685.27" x2="375.81" y2="1532.96"/><line class="cls-1" x1="375.26" y1="1666.57" x2="375.26" y2="1693.22"/><text class="cls-5" transform="translate(477.08 684.94) rotate(.06)"><tspan x="0" y="0">le Repubbliche Marinare attaccano le isole del Canale</tspan></text><text class="cls-5" transform="translate(477.04 711.59) rotate(.06)"><tspan x="0" y="0">termina amministrazione del sultanato</tspan></text><text class="cls-5" transform="translate(477.04 738.24) rotate(.06)"><tspan x="0" y="0">i Normanni occupano l’isola. Pantelaream </tspan></text><text class="cls-5" transform="translate(477.04 764.9) rotate(.06)"><tspan x="0" y="0">trattato tra Federico II e il sovrano di Tunisi Abuissac </tspan></text><text class="cls-5" transform="translate(477.04 791.34) rotate(.06)"><tspan x="0" y="0">Carlo D’Angiò impone un tributo straordinario ai Saraceni </tspan></text><text class="cls-5" transform="translate(477.04 818) rotate(.06)"><tspan x="0" y="0">il re D’Aragona concede il transito in Sicilia dei Saraceni di Pantallaria e un rimborso </tspan></text><text class="cls-5" transform="translate(477.04 845.11) rotate(.06)"><tspan x="0" y="0">i Catalani diventano capitani dell’isola</tspan></text><text class="cls-5" transform="translate(477.04 871.3) rotate(.06)"><tspan x="0" y="0">deportazione e schiavitù dei Saraceni dell’isola</tspan></text><text class="cls-5" transform="translate(477.04 897.95) rotate(.06)"><tspan x="0" y="0">i Genovesi saccheggiano l’isola</tspan></text><text class="cls-5" transform="translate(477.04 924.61) rotate(.06)"><tspan x="0" y="0">feudo di Emanuele Doria</tspan></text><text class="cls-5" transform="translate(477.04 951.26) rotate(.06)"><tspan x="0" y="0">feudo dello Squarciafico</tspan></text><text class="cls-5" transform="translate(477.04 977.91) rotate(.06)"><tspan x="0" y="0">assassinio dello Squarciafico</tspan></text><text class="cls-5" transform="translate(477.04 1005.06) rotate(.06)"><tspan x="0" y="0">feudo di Francesco De Belvis</tspan></text><text class="cls-5" transform="translate(477.04 1031.22) rotate(.06)"><tspan x="0" y="0">saccheggio da parte dei pirati moreschi</tspan></text><text class="cls-5" transform="translate(477.04 1057.87) rotate(.06)"><tspan x="0" y="0">saccheggio da parte dei pirati genovesi</tspan></text><text class="cls-5" transform="translate(477.04 1084.79) rotate(.06)"><tspan x="0" y="0">muore Francesco De Belvis. Il feudo torna al demanio e Gonsalvo Denava diventa il capitano</tspan></text><text class="cls-5" transform="translate(477.04 1110.76) rotate(.06)"><tspan x="0" y="0">Alvaro succede al padre Gonsalvo. Inizio della causa De Belvis-Denava</tspan></text><text class="cls-5" transform="translate(477.04 1137.82) rotate(.06)"><tspan x="0" y="0">i De Belvis vincono la causa</tspan></text><text class="cls-5" transform="translate(477.04 1164.48) rotate(.06)"><tspan x="0" y="0">i De Belvis vendono il feudo a Luigi Requesenz</tspan></text><text class="cls-5" transform="translate(477.04 1191.13) rotate(.06)"><tspan x="0" y="0">cacciata degli Ebrei</tspan></text><text class="cls-5" transform="translate(477.04 1217.78) rotate(.06)"><tspan x="0" y="0">i Turchi distruggono la fortezza. Dei cittadini solo 90 vengono risparmiati</tspan></text><text class="cls-5" transform="translate(477.04 1244.43) rotate(.06)"><tspan x="0" y="0">Dragut il pirata saccheggia l’isola che diventa fortezza spagnola</tspan></text><text class="cls-5" transform="translate(477.08 1670.87) rotate(.06)"><tspan x="0" y="0">fascismo</tspan></text><text class="cls-5" transform="translate(477.08 1697.52) rotate(.06)"><tspan x="0" y="0">sbarco degli anglo-americani. Bombardamento del centro storico degli alleati</tspan></text><text class="cls-4" transform="translate(314.11 684.45)"><tspan x="0" y="0">1087 </tspan></text><text class="cls-4" transform="translate(314.11 711.09)"><tspan x="0" y="0">1098</tspan></text><text class="cls-4" transform="translate(316.15 737.73)"><tspan x="0" y="0">1123 </tspan></text><text class="cls-4" transform="translate(314.54 764.43)"><tspan x="0" y="0">1230 </tspan></text><text class="cls-4" transform="translate(314.22 791.01)"><tspan x="0" y="0">1270 </tspan></text><text class="cls-4" transform="translate(314.44 817.65)"><tspan x="0" y="0">1282 </tspan></text><text class="cls-4" transform="translate(314.55 844.29)"><tspan x="0" y="0">1292 </tspan></text><text class="cls-4" transform="translate(314.44 870.93)"><tspan x="0" y="0">1298 </tspan></text><text class="cls-4" transform="translate(314.55 897.57)"><tspan x="0" y="0">1352 </tspan></text><text class="cls-4" transform="translate(315.55 924.21)"><tspan x="0" y="0">1361 </tspan></text><text class="cls-4" transform="translate(314.55 950.85)"><tspan x="0" y="0">1399 </tspan></text><text class="cls-4" transform="translate(313.44 977.49)"><tspan x="0" y="0">1406 </tspan></text><text class="cls-4" transform="translate(315.97 1003.78)"><tspan x="0" y="0">1421 </tspan></text><text class="cls-4" transform="translate(314.37 1030.77)"><tspan x="0" y="0">1425 </tspan></text><text class="cls-4" transform="translate(314.19 1057.41)"><tspan x="0" y="0">1443 </tspan></text><text class="cls-4" transform="translate(314.01 1084.05)"><tspan x="0" y="0">1444 </tspan></text><text class="cls-4" transform="translate(313.77 1110.69)"><tspan x="0" y="0">1469 </tspan></text><text class="cls-4" transform="translate(314.15 1137.12)"><tspan x="0" y="0">1488 </tspan></text><text class="cls-4" transform="translate(314.04 1163.97)"><tspan x="0" y="0">1490 </tspan></text><text class="cls-4" transform="translate(314.37 1190.61)"><tspan x="0" y="0">1492 </tspan></text><text class="cls-4" transform="translate(314.55 1217.25)"><tspan x="0" y="0">1552 </tspan></text><text class="cls-4" transform="translate(314.55 1243.89)"><tspan x="0" y="0">1553 </tspan></text><text class="cls-4" transform="translate(314.55 1669.47)"><tspan x="0" y="0">1925 </tspan></text><text class="cls-4" transform="translate(314.37 1697.31)"><tspan x="0" y="0">1943 </tspan></text><text class="cls-5" transform="translate(477.08 273.81) rotate(.06)"><tspan x="0" y="0">Ogigia (?)- Ulisse e Calipso</tspan></text><text class="cls-7" transform="translate(361.75 245.93) rotate(90)"><tspan class="cls-10" x="0" y="0">T</tspan><tspan class="cls-8" x="6.28" y="0">roia</tspan></text><line class="cls-2" x1="375.81" y1="520.52" x2="456.76" y2="520.52"/><path class="cls-6" d="M456.69,521.95c.79,0,1.43-.64,1.43-1.43s-.64-1.43-1.43-1.43-1.43.64-1.43,1.43.64,1.43,1.43,1.43Z"/><line class="cls-2" x1="375.81" y1="383.23" x2="456.76" y2="383.23"/><path class="cls-6" d="M456.69,384.65c.79,0,1.43-.64,1.43-1.43s-.64-1.43-1.43-1.43-1.43.64-1.43,1.43.64,1.43,1.43,1.43Z"/><line class="cls-2" x1="375.81" y1="328.31" x2="456.76" y2="328.31"/><path class="cls-6" d="M456.69,329.74c.79,0,1.43-.64,1.43-1.43s-.64-1.43-1.43-1.43-1.43.64-1.43,1.43.64,1.43,1.43,1.43Z"/><line class="cls-2" x1="375.81" y1="300.85" x2="456.76" y2="300.85"/><path class="cls-6" d="M456.69,302.28c.79,0,1.43-.64,1.43-1.43s-.64-1.43-1.43-1.43-1.43.64-1.43,1.43.64,1.43,1.43,1.43Z"/><line class="cls-2" x1="375.81" y1="270.31" x2="456.76" y2="270.31"/><path class="cls-6" d="M456.69,271.74c.79,0,1.43-.64,1.43-1.43s-.64-1.43-1.43-1.43-1.43.64-1.43,1.43.64,1.43,1.43,1.43Z"/><line class="cls-2" x1="375.81" y1="246.26" x2="456.76" y2="246.26"/><path class="cls-6" d="M456.69,247.69c.79,0,1.43-.64,1.43-1.43s-.64-1.43-1.43-1.43-1.43.64-1.43,1.43.64,1.43,1.43,1.43Z"/><line class="cls-2" x1="375.81" y1="110.14" x2="456.76" y2="110.16"/><path class="cls-6" d="M456.69,111.59c.79,0,1.43-.64,1.43-1.43s-.64-1.43-1.43-1.43c-.79,0-1.43.64-1.43,1.43s.64,1.43,1.43,1.43Z"/><line class="cls-2" x1="375.81" y1="547.17" x2="456.76" y2="547.17"/><path class="cls-6" d="M456.69,548.6c.79,0,1.43-.64,1.43-1.43s-.64-1.43-1.43-1.43-1.43.64-1.43,1.43.64,1.43,1.43,1.43Z"/><line class="cls-2" x1="375.81" y1="573.82" x2="456.76" y2="573.82"/><path class="cls-6" d="M456.69,575.25c.79,0,1.43-.64,1.43-1.43s-.64-1.43-1.43-1.43-1.43.64-1.43,1.43.64,1.43,1.43,1.43Z"/><line class="cls-2" x1="375.81" y1="600.47" x2="456.76" y2="600.47"/><path class="cls-6" d="M456.69,601.9c.79,0,1.43-.64,1.43-1.43s-.64-1.43-1.43-1.43-1.43.64-1.43,1.43.64,1.43,1.43,1.43Z"/><line class="cls-2" x1="375.81" y1="627.13" x2="456.76" y2="627.13"/><path class="cls-6" d="M456.69,628.56c.79,0,1.43-.64,1.43-1.43s-.64-1.43-1.43-1.43-1.43.64-1.43,1.43.64,1.43,1.43,1.43Z"/><line class="cls-2" x1="375.81" y1="653.78" x2="456.76" y2="653.78"/><path class="cls-6" d="M456.69,655.21c.79,0,1.43-.64,1.43-1.43s-.64-1.43-1.43-1.43-1.43.64-1.43,1.43.64,1.43,1.43,1.43Z"/><line class="cls-2" x1="375.81" y1="680.43" x2="456.76" y2="680.43"/><path class="cls-6" d="M456.69,681.86c.79,0,1.43-.64,1.43-1.43s-.64-1.43-1.43-1.43-1.43.64-1.43,1.43.64,1.43,1.43,1.43Z"/><line class="cls-2" x1="375.81" y1="707.08" x2="456.76" y2="707.08"/><path class="cls-6" d="M456.69,708.51c.79,0,1.43-.64,1.43-1.43s-.64-1.43-1.43-1.43c-.79,0-1.43.64-1.43,1.43s.64,1.43,1.43,1.43Z"/><line class="cls-2" x1="375.81" y1="733.74" x2="456.76" y2="733.74"/><path class="cls-6" d="M456.69,735.16c.79,0,1.43-.64,1.43-1.43s-.64-1.43-1.43-1.43-1.43.64-1.43,1.43.64,1.43,1.43,1.43Z"/><line class="cls-2" x1="375.81" y1="760.39" x2="456.76" y2="760.39"/><path class="cls-6" d="M456.69,761.82c.79,0,1.43-.64,1.43-1.43s-.64-1.43-1.43-1.43-1.43.64-1.43,1.43.64,1.43,1.43,1.43Z"/><line class="cls-2" x1="375.81" y1="787.04" x2="456.76" y2="787.04"/><path class="cls-6" d="M456.69,788.47c.79,0,1.43-.64,1.43-1.43s-.64-1.43-1.43-1.43-1.43.64-1.43,1.43.64,1.43,1.43,1.43Z"/><line class="cls-2" x1="375.81" y1="813.69" x2="456.76" y2="813.69"/><path class="cls-6" d="M456.69,815.12c.79,0,1.43-.64,1.43-1.43s-.64-1.43-1.43-1.43-1.43.64-1.43,1.43.64,1.43,1.43,1.43Z"/><line class="cls-2" x1="375.81" y1="840.35" x2="456.76" y2="840.35"/><path class="cls-6" d="M456.69,841.77c.79,0,1.43-.64,1.43-1.43s-.64-1.43-1.43-1.43-1.43.64-1.43,1.43.64,1.43,1.43,1.43Z"/><line class="cls-2" x1="375.81" y1="867" x2="456.76" y2="867"/><path class="cls-6" d="M456.69,868.43c.79,0,1.43-.64,1.43-1.43s-.64-1.43-1.43-1.43-1.43.64-1.43,1.43.64,1.43,1.43,1.43Z"/><line class="cls-2" x1="375.81" y1="893.65" x2="456.76" y2="893.65"/><path class="cls-6" d="M456.69,895.08c.79,0,1.43-.64,1.43-1.43s-.64-1.43-1.43-1.43-1.43.64-1.43,1.43.64,1.43,1.43,1.43Z"/><line class="cls-2" x1="375.81" y1="920.3" x2="456.76" y2="920.3"/><path class="cls-6" d="M456.69,921.73c.79,0,1.43-.64,1.43-1.43s-.64-1.43-1.43-1.43-1.43.64-1.43,1.43.64,1.43,1.43,1.43Z"/><line class="cls-2" x1="375.81" y1="946.95" x2="456.76" y2="946.95"/><path class="cls-6" d="M456.69,948.38c.79,0,1.43-.64,1.43-1.43s-.64-1.43-1.43-1.43-1.43.64-1.43,1.43.64,1.43,1.43,1.43Z"/><line class="cls-2" x1="375.81" y1="973.61" x2="456.76" y2="973.61"/><path class="cls-6" d="M456.69,975.03c.79,0,1.43-.64,1.43-1.43s-.64-1.43-1.43-1.43-1.43.64-1.43,1.43.64,1.43,1.43,1.43Z"/><line class="cls-2" x1="375.81" y1="1000.26" x2="456.76" y2="1000.26"/><path class="cls-6" d="M456.69,1001.69c.79,0,1.43-.64,1.43-1.43s-.64-1.43-1.43-1.43-1.43.64-1.43,1.43.64,1.43,1.43,1.43Z"/><line class="cls-2" x1="375.81" y1="1026.91" x2="456.76" y2="1026.91"/><path class="cls-6" d="M456.69,1028.34c.79,0,1.43-.64,1.43-1.43s-.64-1.43-1.43-1.43-1.43.64-1.43,1.43.64,1.43,1.43,1.43Z"/><line class="cls-2" x1="375.81" y1="1053.56" x2="456.76" y2="1053.56"/><path class="cls-6" d="M456.69,1054.99c.79,0,1.43-.64,1.43-1.43s-.64-1.43-1.43-1.43-1.43.64-1.43,1.43.64,1.43,1.43,1.43Z"/><line class="cls-2" x1="375.81" y1="1080.22" x2="456.76" y2="1080.22"/><path class="cls-6" d="M456.69,1081.64c.79,0,1.43-.64,1.43-1.43s-.64-1.43-1.43-1.43-1.43.64-1.43,1.43.64,1.43,1.43,1.43Z"/><line class="cls-2" x1="375.81" y1="1106.87" x2="456.76" y2="1106.87"/><path class="cls-6" d="M456.69,1108.3c.79,0,1.43-.64,1.43-1.43s-.64-1.43-1.43-1.43-1.43.64-1.43,1.43.64,1.43,1.43,1.43Z"/><line class="cls-2" x1="375.81" y1="1133.52" x2="456.76" y2="1133.52"/><path class="cls-6" d="M456.69,1134.95c.79,0,1.43-.64,1.43-1.43s-.64-1.43-1.43-1.43-1.43.64-1.43,1.43.64,1.43,1.43,1.43Z"/><line class="cls-2" x1="375.81" y1="1160.17" x2="456.76" y2="1160.17"/><path class="cls-6" d="M456.69,1161.6c.79,0,1.43-.64,1.43-1.43s-.64-1.43-1.43-1.43-1.43.64-1.43,1.43.64,1.43,1.43,1.43Z"/><line class="cls-2" x1="375.81" y1="1186.83" x2="456.76" y2="1186.83"/><path class="cls-6" d="M456.69,1188.25c.79,0,1.43-.64,1.43-1.43s-.64-1.43-1.43-1.43-1.43.64-1.43,1.43.64,1.43,1.43,1.43Z"/><line class="cls-2" x1="375.81" y1="1213.48" x2="456.76" y2="1213.48"/><path class="cls-6" d="M456.69,1214.91c.79,0,1.43-.64,1.43-1.43s-.64-1.43-1.43-1.43-1.43.64-1.43,1.43.64,1.43,1.43,1.43Z"/><line class="cls-2" x1="375.81" y1="1240.13" x2="456.76" y2="1240.13"/><path class="cls-6" d="M456.69,1241.56c.79,0,1.43-.64,1.43-1.43s-.64-1.43-1.43-1.43-1.43.64-1.43,1.43.64,1.43,1.43,1.43Z"/><line class="cls-2" x1="375.81" y1="1666.57" x2="456.76" y2="1666.57"/><path class="cls-6" d="M456.69,1667.99c.79,0,1.43-.64,1.43-1.43s-.64-1.43-1.43-1.43-1.43.64-1.43,1.43.64,1.43,1.43,1.43Z"/><line class="cls-2" x1="375.81" y1="1693.22" x2="456.76" y2="1693.22"/><path class="cls-6" d="M456.69,1694.65c.79,0,1.43-.64,1.43-1.43s-.64-1.43-1.43-1.43-1.43.64-1.43,1.43.64,1.43,1.43,1.43Z"/><text class="cls-3" transform="translate(361.75 1492.61) rotate(90)"><tspan x="0" y="0">risorgimento (1861-1871)</tspan></text><text class="cls-3" transform="translate(361.75 1679.89) rotate(90)"><tspan x="0" y="0">seconda guerra mondiale (1939-1945)</tspan></text><text class="cls-5" transform="translate(477.08 1884.09) rotate(.06)"><tspan x="0" y="0">sviluppo di un’economia basata sul turismo estivo</tspan></text><text class="cls-4" transform="translate(314.22 1882.69)"><tspan x="0" y="0">1970 </tspan></text><line class="cls-2" x1="375.81" y1="1879.79" x2="456.76" y2="1879.78"/><path class="cls-6" d="M456.69,1881.21c.79,0,1.43-.64,1.43-1.43s-.64-1.43-1.43-1.43-1.43.64-1.43,1.43.64,1.43,1.43,1.43Z"/><text class="cls-5" transform="translate(477.08 1296.03) rotate(.23)"><tspan x="0" y="0">iniziano le opere di fortificazione (costruzione dell’odierno Castello)</tspan></text><text class="cls-5" transform="translate(477.09 1322.73) rotate(.22)"><tspan x="0" y="0">vengono sospesi i lavori di fortificazione</tspan></text><text class="cls-5" transform="translate(477.07 1269.45) rotate(.22)"><tspan x="0" y="0">attacco turco</tspan></text><text class="cls-5" transform="translate(477.08 1349.37) rotate(.22)"><tspan x="0" y="0">trattato di Utrecht, l’isola è assegnata ai Piemontesi</tspan></text><text class="cls-5" transform="translate(477.07 1376.01) rotate(.22)"><tspan x="0" y="0">l’isola viene ceduta agli Austriaci</tspan></text><text class="cls-5" transform="translate(477.07 1402.77) rotate(.23)"><tspan x="0" y="0">trattato dell’Aia, l’isola è assegnata ai Borboni</tspan></text><text class="cls-5" transform="translate(477.07 1429.43) rotate(.23)"><tspan x="0" y="0">eruzione, isola Julio-Ferdinandea</tspan></text><text class="cls-5" transform="translate(477.06 1455.99) rotate(.22)"><tspan x="0" y="0">moti liberali del 48 (Garibaldi)</tspan></text><text class="cls-5" transform="translate(477.07 1484.38) rotate(.23)"><tspan x="0" y="0">processo di annessione al Regno d’Italia</tspan></text><text class="cls-5" transform="translate(477.08 1509.49) rotate(.23)"><tspan x="0" y="0">fine del brigantaggio (fine Ribera)</tspan></text><text class="cls-5" transform="translate(477.07 1537.68) rotate(.23)"><tspan x="0" y="0">ultima eruzione nell’isola</tspan></text><text class="cls-4" transform="translate(313.95 1270.18)"><tspan x="0" y="0">1556 </tspan></text><text class="cls-4" transform="translate(313.35 1296.82)"><tspan x="0" y="0">1566 </tspan></text><text class="cls-4" transform="translate(316.15 1321.7)"><tspan x="0" y="0">1571 </tspan></text><text class="cls-4" transform="translate(316.15 1349.36)"><tspan x="0" y="0">1713 </tspan></text><text class="cls-4" transform="translate(316.15 1377.01)"><tspan x="0" y="0">1721 </tspan></text><text class="cls-4" transform="translate(314.37 1403.38)"><tspan x="0" y="0">1734 </tspan></text><text class="cls-4" transform="translate(316.04 1430.02)"><tspan x="0" y="0">1831 </tspan></text><text class="cls-4" transform="translate(314.15 1456.55)"><tspan x="0" y="0">1848 </tspan></text><text class="cls-4" transform="translate(313.51 1483.3)"><tspan x="0" y="0">1860 </tspan></text><text class="cls-4" transform="translate(313.84 1509.94)"><tspan x="0" y="0">1863 </tspan></text><text class="cls-4" transform="translate(297.43 1536.58)"><tspan x="0" y="0">1890-91 </tspan></text><line class="cls-2" x1="375.81" y1="1266.44" x2="456.76" y2="1266.82"/><path class="cls-6" d="M456.68,1268.25c.79,0,1.43-.63,1.43-1.42,0-.79-.63-1.43-1.42-1.43-.79,0-1.43.63-1.43,1.42,0,.79.63,1.43,1.42,1.43Z"/><line class="cls-2" x1="375.81" y1="1293.09" x2="456.76" y2="1293.49"/><path class="cls-6" d="M456.68,1294.92c.79,0,1.43-.63,1.43-1.42,0-.79-.63-1.43-1.42-1.43-.79,0-1.43.63-1.43,1.42,0,.79.63,1.43,1.42,1.43Z"/><line class="cls-2" x1="375.81" y1="1319.74" x2="456.76" y2="1320.13"/><path class="cls-6" d="M456.68,1321.56c.79,0,1.43-.63,1.43-1.42,0-.79-.63-1.43-1.42-1.43s-1.43.63-1.43,1.42c0,.79.63,1.43,1.42,1.43Z"/><line class="cls-2" x1="375.81" y1="1346.4" x2="456.76" y2="1346.79"/><path class="cls-6" d="M456.68,1348.21c.79,0,1.43-.63,1.43-1.42s-.63-1.43-1.42-1.43c-.79,0-1.43.63-1.43,1.42,0,.79.63,1.43,1.42,1.43Z"/><line class="cls-2" x1="375.81" y1="1373.05" x2="456.76" y2="1373.44"/><path class="cls-6" d="M456.68,1374.87c.79,0,1.43-.63,1.43-1.42,0-.79-.63-1.43-1.42-1.43-.79,0-1.43.63-1.43,1.42,0,.79.63,1.43,1.42,1.43Z"/><line class="cls-2" x1="375.81" y1="1399.7" x2="456.76" y2="1400.11"/><path class="cls-6" d="M456.68,1401.54c.79,0,1.43-.63,1.44-1.42,0-.79-.63-1.43-1.42-1.44-.79,0-1.43.63-1.44,1.42,0,.79.63,1.43,1.42,1.44Z"/><line class="cls-2" x1="375.81" y1="1426.35" x2="456.76" y2="1426.76"/><path class="cls-6" d="M456.68,1428.19c.79,0,1.43-.63,1.44-1.42,0-.79-.63-1.43-1.42-1.44-.79,0-1.43.63-1.44,1.42,0,.79.63,1.43,1.42,1.44Z"/><line class="cls-2" x1="375.81" y1="1453.01" x2="456.76" y2="1453.39"/><path class="cls-6" d="M456.68,1454.82c.79,0,1.43-.63,1.43-1.42,0-.79-.63-1.43-1.42-1.43-.79,0-1.43.63-1.43,1.42,0,.79.63,1.43,1.42,1.43Z"/><line class="cls-2" x1="375.81" y1="1479.66" x2="456.76" y2="1480.06"/><path class="cls-6" d="M456.68,1481.48c.79,0,1.43-.63,1.43-1.42s-.63-1.43-1.42-1.43-1.43.63-1.43,1.42c0,.79.63,1.43,1.42,1.43Z"/><line class="cls-2" x1="375.81" y1="1506.31" x2="456.76" y2="1506.71"/><path class="cls-6" d="M456.68,1508.14c.79,0,1.43-.63,1.44-1.42,0-.79-.63-1.43-1.42-1.44-.79,0-1.43.63-1.44,1.42s.63,1.43,1.42,1.44Z"/><line class="cls-2" x1="375.81" y1="1532.96" x2="456.76" y2="1533.36"/><path class="cls-6" d="M456.68,1534.79c.79,0,1.43-.63,1.43-1.42,0-.79-.63-1.43-1.42-1.43-.79,0-1.43.63-1.43,1.42,0,.79.63,1.43,1.42,1.43Z"/><circle class="cls-9" cx="375.84" cy="110.16" r="1.87"/></svg>